<mxfile host="Electron" modified="2024-06-12T22:19:13.711Z" agent="Mozilla/5.0 (Macintosh; Intel Mac OS X 10_15_7) AppleWebKit/537.36 (KHTML, like Gecko) draw.io/24.5.1 Chrome/124.0.6367.207 Electron/30.0.6 Safari/537.36" etag="MMbbOzhXfX3uqIF4JLEk" version="24.5.1" type="device" pages="3">
  <diagram name="schema" id="-U8rRpyTSq4u7GKG51dM">
    <mxGraphModel dx="1026" dy="772" grid="1" gridSize="10" guides="1" tooltips="1" connect="1" arrows="1" fold="1" page="1" pageScale="1" pageWidth="827" pageHeight="1169" math="0" shadow="0">
      <root>
        <mxCell id="0" />
        <mxCell id="1" parent="0" />
        <mxCell id="voWmRa2pXaKrDhGQnHco-1" value="&lt;font face=&quot;Tahoma&quot;&gt;&lt;i style=&quot;&quot;&gt;&lt;font style=&quot;font-size: 12px;&quot;&gt;&amp;lt;&amp;lt;entity&amp;gt;&amp;gt;&lt;/font&gt;&lt;/i&gt;&lt;br&gt;&lt;/font&gt;&lt;b&gt;IotDevice&lt;/b&gt;" style="swimlane;childLayout=stackLayout;horizontal=1;startSize=39;horizontalStack=0;rounded=0;fontSize=14;fontStyle=0;strokeWidth=2;resizeParent=0;resizeLast=1;shadow=0;dashed=0;align=center;fillColor=#fff2cc;strokeColor=#d6b656;arcSize=19;spacingBottom=2;html=1;" parent="1" vertex="1">
          <mxGeometry x="164" y="311" width="250" height="80" as="geometry" />
        </mxCell>
        <mxCell id="voWmRa2pXaKrDhGQnHco-2" value="&lt;div style=&quot;&quot;&gt;&lt;span style=&quot;&quot;&gt;* name: string&lt;/span&gt;&lt;/div&gt;&lt;div style=&quot;text-align: center;&quot;&gt;&lt;span style=&quot;background-color: rgb(255, 255, 255); text-align: left;&quot;&gt;o&lt;/span&gt;&lt;span style=&quot;background-color: rgb(255, 255, 255); text-align: left;&quot;&gt;&amp;nbsp;&lt;/span&gt;&lt;span style=&quot;text-align: left;&quot;&gt;description: string&lt;/span&gt;&lt;br&gt;&lt;/div&gt;" style="align=left;strokeColor=none;fillColor=none;spacingLeft=4;fontSize=12;verticalAlign=top;resizable=0;rotatable=0;part=1;html=1;fontFamily=Verdana;" parent="voWmRa2pXaKrDhGQnHco-1" vertex="1">
          <mxGeometry y="39" width="250" height="41" as="geometry" />
        </mxCell>
        <mxCell id="voWmRa2pXaKrDhGQnHco-3" value="&lt;font style=&quot;font-size: 12px;&quot; face=&quot;Tahoma&quot;&gt;&amp;lt;&amp;lt;entity&amp;gt;&amp;gt;&lt;/font&gt;&lt;br&gt;&lt;span style=&quot;font-style: normal;&quot;&gt;&lt;b&gt;TemperatureSensor&lt;/b&gt;&lt;/span&gt;" style="swimlane;childLayout=stackLayout;horizontal=1;startSize=40;horizontalStack=0;rounded=0;fontSize=14;fontStyle=2;strokeWidth=2;resizeParent=0;resizeLast=1;shadow=0;dashed=0;align=center;fillColor=#fff2cc;strokeColor=#d6b656;spacingBottom=2;arcSize=19;fixDash=0;autosize=1;container=1;backgroundOutline=0;enumerate=0;noLabel=0;html=1;" parent="1" vertex="1">
          <mxGeometry x="490" y="230" width="250" height="80" as="geometry" />
        </mxCell>
        <mxCell id="voWmRa2pXaKrDhGQnHco-5" value="* temperature: number" style="align=left;strokeColor=none;fillColor=none;spacingLeft=4;fontSize=12;verticalAlign=middle;resizable=0;rotatable=0;part=1;spacingBottom=0;html=1;fontFamily=Verdana;spacing=2;horizontal=1;autosize=1;resizeWidth=0;resizeHeight=0;" parent="voWmRa2pXaKrDhGQnHco-3" vertex="1">
          <mxGeometry y="40" width="250" height="40" as="geometry" />
        </mxCell>
        <mxCell id="voWmRa2pXaKrDhGQnHco-6" value="&lt;font style=&quot;font-size: 12px;&quot; face=&quot;Tahoma&quot;&gt;&amp;lt;&amp;lt;entity&amp;gt;&amp;gt;&lt;/font&gt;&lt;br&gt;&lt;span style=&quot;font-style: normal;&quot;&gt;&lt;b&gt;HumiditySensor&lt;/b&gt;&lt;/span&gt;" style="swimlane;childLayout=stackLayout;horizontal=1;startSize=40;horizontalStack=0;rounded=0;fontSize=14;fontStyle=2;strokeWidth=2;resizeParent=0;resizeLast=1;shadow=0;dashed=0;align=center;fillColor=#fff2cc;strokeColor=#d6b656;spacingBottom=2;arcSize=19;fixDash=0;autosize=1;container=1;backgroundOutline=0;enumerate=0;noLabel=0;html=1;" parent="1" vertex="1">
          <mxGeometry x="490" y="410" width="250" height="80" as="geometry" />
        </mxCell>
        <mxCell id="voWmRa2pXaKrDhGQnHco-7" value="* humidity: number" style="align=left;strokeColor=none;fillColor=none;spacingLeft=4;fontSize=12;verticalAlign=middle;resizable=0;rotatable=0;part=1;spacingBottom=0;html=1;fontFamily=Verdana;spacing=2;horizontal=1;autosize=1;resizeWidth=0;resizeHeight=0;" parent="voWmRa2pXaKrDhGQnHco-6" vertex="1">
          <mxGeometry y="40" width="250" height="40" as="geometry" />
        </mxCell>
        <mxCell id="voWmRa2pXaKrDhGQnHco-11" style="edgeStyle=orthogonalEdgeStyle;rounded=0;orthogonalLoop=1;jettySize=auto;html=1;exitX=1;exitY=0.25;exitDx=0;exitDy=0;endArrow=open;endFill=0;startSize=4;endSize=10;entryX=0.5;entryY=1;entryDx=0;entryDy=0;" parent="1" target="voWmRa2pXaKrDhGQnHco-5" edge="1">
          <mxGeometry relative="1" as="geometry">
            <Array as="points">
              <mxPoint x="615" y="350" />
            </Array>
            <mxPoint x="414" y="350.25" as="sourcePoint" />
            <mxPoint x="680" y="340" as="targetPoint" />
          </mxGeometry>
        </mxCell>
        <mxCell id="voWmRa2pXaKrDhGQnHco-12" value="&lt;font face=&quot;Verdana&quot; style=&quot;font-size: 12px;&quot;&gt;hasTemperatureSensor&lt;/font&gt;" style="edgeLabel;html=1;align=center;verticalAlign=middle;resizable=0;points=[];" parent="voWmRa2pXaKrDhGQnHco-11" vertex="1" connectable="0">
          <mxGeometry x="0.0114" y="1" relative="1" as="geometry">
            <mxPoint x="-31" y="-8" as="offset" />
          </mxGeometry>
        </mxCell>
        <mxCell id="_L3FRz4O-gy1xlna3gWk-2" value="0..1" style="text;html=1;strokeColor=none;fillColor=none;align=center;verticalAlign=middle;whiteSpace=wrap;rounded=0;" parent="1" vertex="1">
          <mxGeometry x="590" y="330" width="20" height="20" as="geometry" />
        </mxCell>
        <mxCell id="2XwcXqHBjYcnXfQJ1GjY-1" style="edgeStyle=orthogonalEdgeStyle;rounded=0;orthogonalLoop=1;jettySize=auto;html=1;exitX=1;exitY=0.5;exitDx=0;exitDy=0;entryX=0.5;entryY=0;entryDx=0;entryDy=0;endArrow=open;endFill=0;startSize=4;endSize=10;" edge="1" parent="1" source="voWmRa2pXaKrDhGQnHco-2" target="voWmRa2pXaKrDhGQnHco-6">
          <mxGeometry relative="1" as="geometry">
            <Array as="points">
              <mxPoint x="440" y="371" />
              <mxPoint x="615" y="370" />
            </Array>
            <mxPoint x="414" y="360.25" as="sourcePoint" />
            <mxPoint x="615" y="310" as="targetPoint" />
          </mxGeometry>
        </mxCell>
        <mxCell id="2XwcXqHBjYcnXfQJ1GjY-2" value="&lt;font face=&quot;Verdana&quot; style=&quot;font-size: 12px;&quot;&gt;hasHumiditySensor&lt;/font&gt;" style="edgeLabel;html=1;align=center;verticalAlign=middle;resizable=0;points=[];" vertex="1" connectable="0" parent="2XwcXqHBjYcnXfQJ1GjY-1">
          <mxGeometry x="0.0114" y="1" relative="1" as="geometry">
            <mxPoint x="-31" y="11" as="offset" />
          </mxGeometry>
        </mxCell>
        <mxCell id="2XwcXqHBjYcnXfQJ1GjY-3" value="0..1" style="text;html=1;strokeColor=none;fillColor=none;align=center;verticalAlign=middle;whiteSpace=wrap;rounded=0;" vertex="1" parent="1">
          <mxGeometry x="590" y="371" width="20" height="20" as="geometry" />
        </mxCell>
      </root>
    </mxGraphModel>
  </diagram>
  <diagram id="lVq_1g_pCwZ7buvHjpqm" name="instance">
    <mxGraphModel dx="1026" dy="772" grid="1" gridSize="10" guides="1" tooltips="1" connect="1" arrows="1" fold="1" page="1" pageScale="1" pageWidth="827" pageHeight="1169" math="0" shadow="0">
      <root>
        <mxCell id="0" />
        <mxCell id="1" parent="0" />
        <mxCell id="Z3KZdV1z-FpotFy621Re-1" value="&lt;i style=&quot;&quot;&gt;&lt;font face=&quot;Verdana&quot;&gt;urn:ngsi-ld:IotDevice:1&lt;/font&gt;&lt;/i&gt;" style="swimlane;childLayout=stackLayout;horizontal=1;startSize=39;horizontalStack=0;rounded=0;fontSize=14;fontStyle=0;strokeWidth=2;resizeParent=0;resizeLast=1;shadow=0;dashed=0;align=center;fillColor=#fff2cc;strokeColor=#d6b656;arcSize=19;spacingBottom=2;html=1;" parent="1" vertex="1">
          <mxGeometry x="164" y="311" width="250" height="80" as="geometry" />
        </mxCell>
        <mxCell id="Z3KZdV1z-FpotFy621Re-2" value="name = &quot;IotSensors&quot;&lt;br&gt;description = &quot;IoT device with sensors.&lt;span style=&quot;background-color: initial;&quot;&gt;&quot;&lt;/span&gt;" style="align=left;strokeColor=none;fillColor=none;spacingLeft=4;fontSize=12;verticalAlign=top;resizable=0;rotatable=0;part=1;html=1;fontFamily=Verdana;" parent="Z3KZdV1z-FpotFy621Re-1" vertex="1">
          <mxGeometry y="39" width="250" height="41" as="geometry" />
        </mxCell>
        <mxCell id="Z3KZdV1z-FpotFy621Re-3" value="&lt;i style=&quot;border-color: var(--border-color);&quot;&gt;&lt;font face=&quot;Verdana&quot;&gt;urn:ngsi-ld:TemperatureSensor:1&lt;/font&gt;&lt;/i&gt;" style="swimlane;childLayout=stackLayout;horizontal=1;startSize=38;horizontalStack=0;rounded=0;fontSize=14;fontStyle=2;strokeWidth=2;resizeParent=0;resizeLast=1;shadow=0;dashed=0;align=center;fillColor=#fff2cc;strokeColor=#d6b656;spacingBottom=2;arcSize=19;fixDash=0;autosize=1;container=1;backgroundOutline=0;enumerate=0;noLabel=0;html=1;" parent="1" vertex="1">
          <mxGeometry x="490" y="230" width="280" height="80" as="geometry" />
        </mxCell>
        <mxCell id="Z3KZdV1z-FpotFy621Re-4" value="temperature =&amp;nbsp;27.9 (unitCode = &quot;CEL&quot;)" style="align=left;strokeColor=none;fillColor=none;spacingLeft=4;fontSize=12;verticalAlign=middle;resizable=0;rotatable=0;part=1;spacingBottom=0;html=1;fontFamily=Verdana;spacing=2;horizontal=1;autosize=1;resizeWidth=0;resizeHeight=0;" parent="Z3KZdV1z-FpotFy621Re-3" vertex="1">
          <mxGeometry y="38" width="280" height="42" as="geometry" />
        </mxCell>
        <mxCell id="Z3KZdV1z-FpotFy621Re-5" value="&lt;i style=&quot;border-color: var(--border-color);&quot;&gt;&lt;font face=&quot;Verdana&quot;&gt;urn:ngsi-ld:HumiditySensor:1&lt;/font&gt;&lt;/i&gt;" style="swimlane;childLayout=stackLayout;horizontal=1;startSize=38;horizontalStack=0;rounded=0;fontSize=14;fontStyle=2;strokeWidth=2;resizeParent=0;resizeLast=1;shadow=0;dashed=0;align=center;fillColor=#fff2cc;strokeColor=#d6b656;spacingBottom=2;arcSize=19;fixDash=0;autosize=1;container=1;backgroundOutline=0;enumerate=0;noLabel=0;html=1;" parent="1" vertex="1">
          <mxGeometry x="490" y="410" width="280" height="80" as="geometry" />
        </mxCell>
        <mxCell id="Z3KZdV1z-FpotFy621Re-6" value="humidity = 30.8 (unitCode = &quot;P1&quot;)" style="align=left;strokeColor=none;fillColor=none;spacingLeft=4;fontSize=12;verticalAlign=middle;resizable=0;rotatable=0;part=1;spacingBottom=0;html=1;fontFamily=Verdana;spacing=2;horizontal=1;autosize=1;resizeWidth=0;resizeHeight=0;" parent="Z3KZdV1z-FpotFy621Re-5" vertex="1">
          <mxGeometry y="38" width="280" height="42" as="geometry" />
        </mxCell>
        <mxCell id="g-3uxg9Th7rqJy24eFKI-1" style="edgeStyle=orthogonalEdgeStyle;rounded=0;orthogonalLoop=1;jettySize=auto;html=1;exitX=1;exitY=0.25;exitDx=0;exitDy=0;endArrow=open;endFill=0;startSize=4;endSize=10;entryX=0.5;entryY=1;entryDx=0;entryDy=0;" edge="1" parent="1" target="Z3KZdV1z-FpotFy621Re-4">
          <mxGeometry relative="1" as="geometry">
            <Array as="points">
              <mxPoint x="630" y="350" />
            </Array>
            <mxPoint x="414" y="350.25" as="sourcePoint" />
            <mxPoint x="615" y="310" as="targetPoint" />
          </mxGeometry>
        </mxCell>
        <mxCell id="g-3uxg9Th7rqJy24eFKI-2" value="&lt;font face=&quot;Verdana&quot; style=&quot;font-size: 12px;&quot;&gt;hasTemperatureSensor&lt;/font&gt;" style="edgeLabel;html=1;align=center;verticalAlign=middle;resizable=0;points=[];" vertex="1" connectable="0" parent="g-3uxg9Th7rqJy24eFKI-1">
          <mxGeometry x="0.0114" y="1" relative="1" as="geometry">
            <mxPoint x="-31" y="-8" as="offset" />
          </mxGeometry>
        </mxCell>
        <mxCell id="g-3uxg9Th7rqJy24eFKI-3" style="edgeStyle=orthogonalEdgeStyle;rounded=0;orthogonalLoop=1;jettySize=auto;html=1;endArrow=open;endFill=0;startSize=4;endSize=10;exitX=1;exitY=0.5;exitDx=0;exitDy=0;entryX=0.5;entryY=0;entryDx=0;entryDy=0;" edge="1" parent="1" source="Z3KZdV1z-FpotFy621Re-2" target="Z3KZdV1z-FpotFy621Re-5">
          <mxGeometry relative="1" as="geometry">
            <Array as="points">
              <mxPoint x="630" y="371" />
            </Array>
            <mxPoint x="414" y="373" as="sourcePoint" />
            <mxPoint x="630" y="400" as="targetPoint" />
          </mxGeometry>
        </mxCell>
        <mxCell id="g-3uxg9Th7rqJy24eFKI-4" value="&lt;font face=&quot;Verdana&quot; style=&quot;font-size: 12px;&quot;&gt;hasHumiditySensor&lt;/font&gt;" style="edgeLabel;html=1;align=center;verticalAlign=middle;resizable=0;points=[];" vertex="1" connectable="0" parent="g-3uxg9Th7rqJy24eFKI-3">
          <mxGeometry x="0.0114" y="1" relative="1" as="geometry">
            <mxPoint x="-31" y="11" as="offset" />
          </mxGeometry>
        </mxCell>
      </root>
    </mxGraphModel>
  </diagram>
  <diagram id="VATVxcf5pBBIKGu1CdlZ" name="template">
    <mxGraphModel dx="1026" dy="673" grid="1" gridSize="10" guides="1" tooltips="1" connect="1" arrows="1" fold="1" page="1" pageScale="1" pageWidth="827" pageHeight="1169" math="0" shadow="0">
      <root>
        <mxCell id="0" />
        <mxCell id="1" parent="0" />
        <mxCell id="Thz1xflSVt80dF4fFvF_-1" value="&lt;font style=&quot;font-size: 12px;&quot; face=&quot;Tahoma&quot;&gt;&amp;lt;&amp;lt;entity&amp;gt;&amp;gt;&lt;/font&gt;&lt;br&gt;&lt;span style=&quot;font-style: normal;&quot;&gt;&lt;b&gt;TemperatureSensor&lt;/b&gt;&lt;/span&gt;" style="swimlane;childLayout=stackLayout;horizontal=1;startSize=40;horizontalStack=0;rounded=0;fontSize=14;fontStyle=2;strokeWidth=2;resizeParent=0;resizeLast=1;shadow=0;dashed=0;align=center;fillColor=#fff2cc;strokeColor=#d6b656;spacingBottom=2;arcSize=19;fixDash=0;autosize=1;container=1;backgroundOutline=0;enumerate=0;noLabel=0;html=1;" parent="1" vertex="1">
          <mxGeometry x="490" y="230" width="250" height="90" as="geometry" />
        </mxCell>
        <mxCell id="Thz1xflSVt80dF4fFvF_-2" value="&lt;div&gt;id: string&lt;/div&gt;&lt;div&gt;type: string&lt;/div&gt;temperature: number" style="align=left;strokeColor=none;fillColor=none;spacingLeft=4;fontSize=12;verticalAlign=middle;resizable=0;rotatable=0;part=1;spacingBottom=0;html=1;fontFamily=Verdana;spacing=2;horizontal=1;autosize=1;resizeWidth=0;resizeHeight=0;" parent="Thz1xflSVt80dF4fFvF_-1" vertex="1">
          <mxGeometry y="40" width="250" height="50" as="geometry" />
        </mxCell>
        <mxCell id="BE07hbsR4qMTSLGMZQtN-1" value="&lt;font style=&quot;font-size: 12px;&quot; face=&quot;Tahoma&quot;&gt;&amp;lt;&amp;lt;entity&amp;gt;&amp;gt;&lt;/font&gt;&lt;br&gt;&lt;span style=&quot;font-style: normal;&quot;&gt;&lt;b&gt;TemperatureSensor&lt;/b&gt;&lt;/span&gt;" style="swimlane;childLayout=stackLayout;horizontal=1;startSize=40;horizontalStack=0;rounded=0;fontSize=14;fontStyle=2;strokeWidth=2;resizeParent=0;resizeLast=1;shadow=0;dashed=0;align=center;fillColor=#fff2cc;strokeColor=#d6b656;spacingBottom=2;arcSize=19;fixDash=0;autosize=1;container=1;backgroundOutline=0;enumerate=0;noLabel=0;html=1;" parent="1" vertex="1">
          <mxGeometry x="475" y="390" width="280" height="100" as="geometry" />
        </mxCell>
        <mxCell id="BE07hbsR4qMTSLGMZQtN-2" value="&lt;div style=&quot;&quot;&gt;&lt;font style=&quot;font-size: 12px;&quot;&gt;id =&amp;nbsp;&lt;span style=&quot;background-color: initial; font-family: Helvetica; text-align: center;&quot;&gt;&quot;&lt;/span&gt;&lt;span style=&quot;background-color: initial; font-family: Helvetica; text-align: center; border-color: var(--border-color);&quot;&gt;&lt;font style=&quot;font-size: 12px;&quot; face=&quot;Verdana&quot;&gt;urn:ngsi-ld:TemperatureSensor:1&quot;&lt;/font&gt;&lt;/span&gt;&lt;/font&gt;&lt;/div&gt;&lt;div style=&quot;&quot;&gt;&lt;font style=&quot;font-size: 12px;&quot;&gt;&lt;span style=&quot;background-color: initial; font-family: Helvetica; text-align: center; border-color: var(--border-color);&quot;&gt;&lt;font style=&quot;font-size: 12px;&quot; face=&quot;Verdana&quot;&gt;type = &quot;TemperatureSensor&quot;&lt;/font&gt;&lt;/span&gt;&lt;/font&gt;&lt;/div&gt;temperature =&amp;nbsp;27.9 (unitCode = &quot;CEL&quot;)" style="align=left;strokeColor=none;fillColor=none;spacingLeft=4;fontSize=12;verticalAlign=middle;resizable=0;rotatable=0;part=1;spacingBottom=0;html=1;fontFamily=Verdana;spacing=2;horizontal=1;autosize=1;resizeWidth=0;resizeHeight=0;" parent="BE07hbsR4qMTSLGMZQtN-1" vertex="1">
          <mxGeometry y="40" width="280" height="60" as="geometry" />
        </mxCell>
      </root>
    </mxGraphModel>
  </diagram>
</mxfile>
